<?xml version="1.0" encoding="UTF-8" standalone="no"?>
<svg
   xmlns:dc="http://purl.org/dc/elements/1.1/"
   xmlns:cc="http://creativecommons.org/ns#"
   xmlns:rdf="http://www.w3.org/1999/02/22-rdf-syntax-ns#"
   xmlns:svg="http://www.w3.org/2000/svg"
   xmlns="http://www.w3.org/2000/svg"
   xmlns:sodipodi="http://sodipodi.sourceforge.net/DTD/sodipodi-0.dtd"
   xmlns:inkscape="http://www.inkscape.org/namespaces/inkscape"
   width="127pt"
   height="152pt"
   viewBox="0 0 127 152"
   version="1.1"
   id="svg3807"
   inkscape:version="0.47 r22583"
   sodipodi:docname="raw-swedish.svg">
  <metadata
     id="metadata3841">
    <rdf:RDF>
      <cc:Work
         rdf:about="">
        <dc:format>image/svg+xml</dc:format>
        <dc:type
           rdf:resource="http://purl.org/dc/dcmitype/StillImage" />
      </cc:Work>
    </rdf:RDF>
  </metadata>
  <defs
     id="defs3839">
    <inkscape:perspective
       sodipodi:type="inkscape:persp3d"
       inkscape:vp_x="0 : 95 : 1"
       inkscape:vp_y="0 : 1000 : 0"
       inkscape:vp_z="158.75 : 95 : 1"
       inkscape:persp3d-origin="79.375 : 63.333333 : 1"
       id="perspective3843" />
  </defs>
  <sodipodi:namedview
     pagecolor="#ffffff"
     bordercolor="#666666"
     borderopacity="1"
     objecttolerance="10"
     gridtolerance="10"
     guidetolerance="10"
     inkscape:pageopacity="0"
     inkscape:pageshadow="2"
     inkscape:window-width="926"
     inkscape:window-height="677"
     id="namedview3837"
     showgrid="false"
     inkscape:zoom="1.2421053"
     inkscape:cx="-63.930085"
     inkscape:cy="95"
     inkscape:window-x="353"
     inkscape:window-y="319"
     inkscape:window-maximized="0"
     inkscape:current-layer="svg3807" />
  <path
     fill="#ffffff"
     d=" M 0.00 0.00 L 90.78 0.00 C 81.59 1.72 72.13 1.52 62.84 2.72 C 51.90 3.35 41.00 4.43 30.06 5.13 C 26.69 5.18 23.65 7.84 23.17 11.18 C 22.64 16.34 23.39 21.56 22.64 26.70 C 21.18 35.65 22.67 44.75 21.67 53.72 C 20.32 62.26 21.40 70.92 20.82 79.51 C 18.51 79.79 15.57 80.65 15.56 83.50 C 15.22 88.74 16.82 93.90 17.50 99.07 C 17.92 101.52 18.29 103.97 18.69 106.42 C 19.78 110.92 18.88 116.87 23.30 119.75 C 26.78 122.10 31.15 120.59 35.00 120.27 C 37.37 120.05 39.75 120.04 42.13 119.91 C 44.33 119.66 46.50 119.20 48.69 118.86 C 48.85 125.60 49.05 132.33 49.16 139.07 C 38.32 139.47 27.45 140.07 16.71 141.70 C 13.06 142.21 9.56 143.45 6.27 145.09 C 8.51 146.58 10.86 148.02 13.55 148.47 C 23.80 150.52 34.30 150.64 44.64 152.00 L 0.00 152.00 L 0.00 0.00 Z"
     id="path3809"
     style="opacity:0" />
  <path
     fill="#e76e34"
     d=" M 90.78 0.00 L 93.68 0.00 C 96.86 1.30 99.98 3.43 101.19 6.80 C 106.72 21.28 112.19 35.78 117.80 50.22 C 119.63 54.19 120.03 60.23 115.37 62.39 C 111.46 64.86 107.29 66.91 103.44 69.50 C 100.17 71.78 99.25 75.95 98.06 79.51 C 94.38 79.91 90.69 80.08 86.99 80.03 C 72.05 79.92 57.12 80.10 42.18 79.93 C 39.73 79.92 37.27 79.93 34.82 79.96 C 30.15 80.09 25.47 80.05 20.82 79.51 C 21.40 70.92 20.32 62.26 21.67 53.72 C 22.67 44.75 21.18 35.65 22.64 26.70 C 23.39 21.56 22.64 16.34 23.17 11.18 C 23.65 7.84 26.69 5.18 30.06 5.13 C 41.00 4.43 51.90 3.35 62.84 2.72 C 72.13 1.52 81.59 1.72 90.78 0.00 Z"
     id="path3811" />
  <path
     fill="#ffffff"
     d=" M 93.68 0.00 L 127.00 0.00 L 127.00 152.00 L 88.33 152.00 C 98.11 150.72 108.02 150.54 117.74 148.80 C 120.63 148.27 123.55 147.52 126.04 145.89 C 126.24 143.97 124.17 143.73 122.81 143.19 C 117.27 141.54 111.47 141.02 105.75 140.40 C 99.36 139.87 92.94 139.03 86.53 139.65 C 82.45 136.21 75.44 136.26 73.45 130.61 C 72.39 126.17 73.21 121.52 73.03 116.99 C 76.75 116.99 80.47 116.75 84.16 116.33 C 89.47 115.80 95.09 116.37 100.06 114.09 C 102.84 112.64 102.80 109.03 103.42 106.35 C 103.88 103.57 104.05 100.74 104.07 97.92 C 103.92 92.74 104.42 87.51 103.71 82.36 C 102.60 80.31 100.14 79.88 98.06 79.51 C 99.25 75.95 100.17 71.78 103.44 69.50 C 107.29 66.91 111.46 64.86 115.37 62.39 C 120.03 60.23 119.63 54.19 117.80 50.22 C 112.19 35.78 106.72 21.28 101.19 6.80 C 99.98 3.43 96.86 1.30 93.68 0.00 Z"
     id="path3813"
     style="opacity:0" />
  <path
     fill="#262626"
     d=" M 78.36 20.15 C 81.88 18.43 86.40 21.72 85.61 25.58 C 85.23 29.28 80.20 31.04 77.50 28.57 C 74.80 26.41 75.25 21.71 78.36 20.15 Z"
     id="path3815" />
  <path
     fill="#262626"
     d=" M 62.36 22.33 C 66.40 20.57 70.90 25.69 68.45 29.43 C 66.83 32.54 62.00 32.90 60.02 29.98 C 58.05 27.46 59.27 23.27 62.36 22.33 Z"
     id="path3817" />
  <path
     fill="#4fc3e6"
     d=" M 15.56 83.50 C 15.57 80.65 18.51 79.79 20.82 79.51 C 25.47 80.05 30.15 80.09 34.82 79.96 C 31.75 84.71 33.39 90.58 32.89 95.89 C 29.29 96.01 25.68 95.84 22.08 96.09 C 20.04 95.97 18.89 97.90 17.50 99.07 C 16.82 93.90 15.22 88.74 15.56 83.50 Z"
     id="path3819" />
  <path
     fill="#4fc3e6"
     d=" M 98.06 79.51 C 100.14 79.88 102.60 80.31 103.71 82.36 C 104.42 87.51 103.92 92.74 104.07 97.92 C 102.23 96.86 100.28 95.82 98.08 95.99 C 80.09 95.92 62.09 96.17 44.10 95.88 C 43.62 90.57 45.24 84.70 42.18 79.93 C 57.12 80.10 72.05 79.92 86.99 80.03 C 90.69 80.08 94.38 79.91 98.06 79.51 Z"
     id="path3821" />
  <path
     fill="#ffc700"
     d=" M 34.82 79.96 C 37.27 79.93 39.73 79.92 42.18 79.93 C 45.24 84.70 43.62 90.57 44.10 95.88 C 62.09 96.17 80.09 95.92 98.08 95.99 C 100.28 95.82 102.23 96.86 104.07 97.92 C 104.05 100.74 103.88 103.57 103.42 106.35 C 101.30 106.67 99.18 106.95 97.05 106.99 C 79.41 107.10 61.77 106.84 44.14 107.11 C 43.85 111.41 44.87 116.19 42.13 119.91 C 39.75 120.04 37.37 120.05 35.00 120.27 C 32.22 116.42 33.09 111.56 32.86 107.12 C 28.13 106.99 23.38 107.16 18.69 106.42 C 18.29 103.97 17.92 101.52 17.50 99.07 C 18.89 97.90 20.04 95.97 22.08 96.09 C 25.68 95.84 29.29 96.01 32.89 95.89 C 33.39 90.58 31.75 84.71 34.82 79.96 Z"
     id="path3823" />
  <path
     fill="#4fc3e6"
     d=" M 18.69 106.42 C 23.38 107.16 28.13 106.99 32.86 107.12 C 33.09 111.56 32.22 116.42 35.00 120.27 C 31.15 120.59 26.78 122.10 23.30 119.75 C 18.88 116.87 19.78 110.92 18.69 106.42 Z"
     id="path3825" />
  <path
     fill="#4fc3e6"
     d=" M 97.05 106.99 C 99.18 106.95 101.30 106.67 103.42 106.35 C 102.80 109.03 102.84 112.64 100.06 114.09 C 95.09 116.37 89.47 115.80 84.16 116.33 C 80.47 116.75 76.75 116.99 73.03 116.99 C 70.61 117.03 68.19 117.19 65.79 117.51 C 62.60 117.94 59.39 118.24 56.17 118.32 C 53.67 118.38 51.17 118.51 48.69 118.86 C 46.50 119.20 44.33 119.66 42.13 119.91 C 44.87 116.19 43.85 111.41 44.14 107.11 C 61.77 106.84 79.41 107.10 97.05 106.99 Z"
     id="path3827" />
  <path
     fill="#000000"
     d=" M 65.79 117.51 C 68.19 117.19 70.61 117.03 73.03 116.99 C 73.21 121.52 72.39 126.17 73.45 130.61 C 75.44 136.26 82.45 136.21 86.53 139.65 C 82.96 143.29 77.52 142.11 72.96 142.00 C 70.52 142.02 68.68 140.28 66.82 138.97 C 65.72 131.87 66.22 124.66 65.79 117.51 Z"
     id="path3829" />
  <path
     fill="#000000"
     d=" M 48.69 118.86 C 51.17 118.51 53.67 118.38 56.17 118.32 C 56.07 123.57 55.90 128.81 55.95 134.06 C 55.89 135.95 56.65 137.71 57.51 139.34 C 60.89 142.84 66.34 143.10 69.44 146.98 C 64.60 149.44 58.91 148.98 53.72 148.15 C 49.68 147.17 49.04 142.56 49.16 139.07 C 49.05 132.33 48.85 125.60 48.69 118.86 Z"
     id="path3831" />
  <path
     fill="#ffffff"
     d=" M 56.17 118.32 C 59.39 118.24 62.60 117.94 65.79 117.51 C 66.22 124.66 65.72 131.87 66.82 138.97 C 63.71 139.02 60.61 139.14 57.51 139.34 C 56.65 137.71 55.89 135.95 55.95 134.06 C 55.90 128.81 56.07 123.57 56.17 118.32 Z"
     id="path3833"
     style="opacity:0" />
  <path
     fill="#cccccc"
     d=" M 16.71 141.70 C 27.45 140.07 38.32 139.47 49.16 139.07 C 49.04 142.56 49.68 147.17 53.72 148.15 C 58.91 148.98 64.60 149.44 69.44 146.98 C 66.34 143.10 60.89 142.84 57.51 139.34 C 60.61 139.14 63.71 139.02 66.82 138.97 C 68.68 140.28 70.52 142.02 72.96 142.00 C 77.52 142.11 82.96 143.29 86.53 139.65 C 92.94 139.03 99.36 139.87 105.75 140.40 C 111.47 141.02 117.27 141.54 122.81 143.19 C 124.17 143.73 126.24 143.97 126.04 145.89 C 123.55 147.52 120.63 148.27 117.74 148.80 C 108.02 150.54 98.11 150.72 88.33 152.00 L 44.64 152.00 C 34.30 150.64 23.80 150.52 13.55 148.47 C 10.86 148.02 8.51 146.58 6.27 145.09 C 9.56 143.45 13.06 142.21 16.71 141.70 Z"
     id="path3835" />
</svg>
